<svg width="28" height="28" viewBox="0 0 28 28" fill="none" xmlns="http://www.w3.org/2000/svg">
  <path
    d="M8.04617 10.7829C8.53087 10.7829 8.88634 10.9122 9.12868 11.1871C9.37103 11.4619 9.50029 11.8014 9.50029 12.2055C9.50029 12.6097 9.37103 12.933 9.12868 13.1917C8.88634 13.4504 8.51471 13.5797 8.04614 13.5797H6.4951V10.7829H8.04617V10.7829ZM19.5337 12.8684C19.9861 12.8684 20.3093 13.0462 20.5193 13.4018C20.6971 13.709 20.794 14.0808 20.8263 14.5497V14.9215C20.8263 15.5035 20.7294 15.9561 20.5193 16.3118C20.3093 16.6674 19.9861 16.8453 19.5499 16.8453C19.0975 16.8453 18.7744 16.6674 18.5643 16.3279C18.3866 16.0208 18.2897 15.6328 18.2574 15.1478V14.8083C18.2574 14.2425 18.3543 13.7898 18.5643 13.4342C18.7744 13.0785 19.0814 12.8684 19.5337 12.8684ZM15.5591 11.5427C15.2522 11.5427 14.9775 11.6397 14.7351 11.8175C14.5413 11.9631 14.3797 12.157 14.2504 12.3995L14.1535 12.5935L14.0727 11.6559H12.4893V17.9931H14.1858V13.7251C14.2666 13.5312 14.3959 13.3856 14.5574 13.2725C14.6867 13.1917 14.8482 13.1432 15.0421 13.127H15.1875L15.8176 13.1432L16.0115 11.6074C15.9308 11.5912 15.8661 11.575 15.7854 11.5589C15.7207 11.5427 15.6399 11.5427 15.5591 11.5427V11.5427ZM8.04617 9.47343H4.79861V18.0092H6.51126V14.9215H8.06233C9.04788 14.9215 9.80727 14.679 10.3728 14.1778C10.9382 13.6767 11.2129 13.03 11.2129 12.2055C11.2129 11.3811 10.9383 10.7344 10.3728 10.2332C9.85575 9.78061 9.161 9.52194 8.30468 9.48959L8.04617 9.47346V9.47343ZM19.5337 11.5427C18.5967 11.5427 17.8696 11.8499 17.3364 12.448C16.8517 12.9977 16.5932 13.6928 16.5447 14.5173V14.9053C16.5447 15.8591 16.8032 16.6351 17.3364 17.2333C17.8696 17.8314 18.5967 18.1386 19.5337 18.1386C20.4709 18.1386 21.1979 17.8314 21.7311 17.2333C22.2158 16.6836 22.4743 16.0046 22.5228 15.164V14.776C22.5228 13.8222 22.2643 13.0462 21.7311 12.448C21.1979 11.8499 20.4709 11.5427 19.5337 11.5427ZM21.004 7C24.8656 7 28 10.1362 28 14C28 17.8638 24.8656 21 21.004 21H0V10.9931C0 8.7783 1.79342 7 3.99077 7H21.004H21.004Z"
    fill="url(#paint0_linear_10076_35050)" />
  <defs>
    <linearGradient id="paint0_linear_10076_35050" x1="14" y1="7" x2="14" y2="21"
      gradientUnits="userSpaceOnUse">
      <stop stop-color="#FFE8AD" />
      <stop offset="1" stop-color="#D1A637" />
    </linearGradient>
  </defs>
</svg>
  